<svg width="18" height="18" viewBox="0 0 18 18" fill="none" xmlns="http://www.w3.org/2000/svg">
<path d="M7.00049 15.8824C6.74561 15.8827 6.50046 15.986 6.31512 16.1713C6.12978 16.3565 6.01825 16.6097 6.00332 16.8791C5.98838 17.1485 6.07116 17.4138 6.23475 17.6208C6.39834 17.8277 6.63039 17.9607 6.88349 17.9926L7.00049 18H17.0005C17.2554 17.9997 17.5005 17.8964 17.6859 17.7111C17.8712 17.5258 17.9827 17.2726 17.9977 17.0032C18.0126 16.7338 17.9298 16.4685 17.7662 16.2616C17.6026 16.0546 17.3706 15.9216 17.1175 15.8898L17.0005 15.8824H7.00049ZM1.00049 10.5882C0.735271 10.5882 0.480917 10.6998 0.293381 10.8984C0.105844 11.0969 0.000488281 11.3662 0.000488281 11.6471C0.000488281 11.9279 0.105844 12.1972 0.293381 12.3958C0.480917 12.5943 0.735271 12.7059 1.00049 12.7059H17.0005C17.2657 12.7059 17.5201 12.5943 17.7076 12.3958C17.8951 12.1972 18.0005 11.9279 18.0005 11.6471C18.0005 11.3662 17.8951 11.0969 17.7076 10.8984C17.5201 10.6998 17.2657 10.5882 17.0005 10.5882H1.00049ZM7.00049 5.29412C6.74561 5.29442 6.50046 5.39775 6.31512 5.58302C6.12978 5.76828 6.01825 6.02148 6.00332 6.29089C5.98838 6.5603 6.07116 6.82558 6.23475 7.03253C6.39834 7.23948 6.63039 7.37248 6.88349 7.40435L7.00049 7.41177H17.0005C17.2554 7.41147 17.5005 7.30813 17.6859 7.12287C17.8712 6.93761 17.9827 6.6844 17.9977 6.41499C18.0126 6.14559 17.9298 5.8803 17.7662 5.67335C17.6026 5.4664 17.3706 5.3334 17.1175 5.30153L17.0005 5.29412H7.00049ZM1.00049 0C0.745609 0.000299337 0.500456 0.103637 0.315121 0.288898C0.129786 0.47416 0.0182533 0.727362 0.00331688 0.996771C-0.0116196 1.26618 0.0711632 1.53146 0.234753 1.73841C0.398342 1.94536 0.630392 2.07836 0.883488 2.11024L1.00049 2.11765H17.0005C17.2554 2.11735 17.5005 2.01401 17.6859 1.82875C17.8712 1.64349 17.9827 1.39029 17.9977 1.12088C18.0126 0.851467 17.9298 0.586186 17.7662 0.379236C17.6026 0.172286 17.3706 0.0392862 17.1175 0.00741173L17.0005 0H1.00049Z" fill="#0A0A0A"/>
</svg>
