<svg width="19" height="18" viewBox="0 0 19 18" fill="none" xmlns="http://www.w3.org/2000/svg">
<path d="M7.38037 15.8824C7.12549 15.8827 6.88034 15.986 6.695 16.1713C6.50967 16.3565 6.39814 16.6097 6.3832 16.8791C6.36826 17.1485 6.45105 17.4138 6.61464 17.6208C6.77823 17.8277 7.01028 17.9607 7.26337 17.9926L7.38037 18H17.3804C17.6353 17.9997 17.8804 17.8964 18.0657 17.7111C18.2511 17.5258 18.3626 17.2726 18.3775 17.0032C18.3925 16.7338 18.3097 16.4685 18.1461 16.2616C17.9825 16.0546 17.7505 15.9216 17.4974 15.8898L17.3804 15.8824H7.38037ZM1.38037 10.5882C1.11515 10.5882 0.8608 10.6998 0.673264 10.8984C0.485727 11.0969 0.380371 11.3662 0.380371 11.6471C0.380371 11.9279 0.485727 12.1972 0.673264 12.3958C0.8608 12.5943 1.11515 12.7059 1.38037 12.7059H17.3804C17.6456 12.7059 17.8999 12.5943 18.0875 12.3958C18.275 12.1972 18.3804 11.9279 18.3804 11.6471C18.3804 11.3662 18.275 11.0969 18.0875 10.8984C17.8999 10.6998 17.6456 10.5882 17.3804 10.5882H1.38037ZM7.38037 5.29412C7.12549 5.29442 6.88034 5.39775 6.695 5.58302C6.50967 5.76828 6.39814 6.02148 6.3832 6.29089C6.36826 6.5603 6.45105 6.82558 6.61464 7.03253C6.77823 7.23948 7.01028 7.37248 7.26337 7.40435L7.38037 7.41177H17.3804C17.6353 7.41147 17.8804 7.30813 18.0657 7.12287C18.2511 6.93761 18.3626 6.6844 18.3775 6.41499C18.3925 6.14559 18.3097 5.8803 18.1461 5.67335C17.9825 5.4664 17.7505 5.3334 17.4974 5.30153L17.3804 5.29412H7.38037ZM1.38037 0C1.12549 0.000299337 0.880339 0.103637 0.695004 0.288898C0.509668 0.47416 0.398136 0.727362 0.3832 0.996771C0.368263 1.26618 0.451046 1.53146 0.614635 1.73841C0.778225 1.94536 1.01027 2.07836 1.26337 2.11024L1.38037 2.11765H17.3804C17.6353 2.11735 17.8804 2.01401 18.0657 1.82875C18.2511 1.64349 18.3626 1.39029 18.3775 1.12088C18.3925 0.851467 18.3097 0.586186 18.1461 0.379236C17.9825 0.172286 17.7505 0.0392862 17.4974 0.00741173L17.3804 0H1.38037Z" fill="#F5F5F5"/>
</svg>
