<svg width="18" height="18" viewBox="0 0 18 18" fill="none" xmlns="http://www.w3.org/2000/svg">
<path d="M11.0005 15.8824C11.2554 15.8827 11.5005 15.986 11.6859 16.1713C11.8712 16.3565 11.9827 16.6097 11.9977 16.8791C12.0126 17.1485 11.9298 17.4138 11.7662 17.6208C11.6026 17.8277 11.3706 17.9607 11.1175 17.9926L11.0005 18H1.00049C0.745609 17.9997 0.500456 17.8964 0.31512 17.7111C0.129784 17.5258 0.0182533 17.2726 0.00331616 17.0032C-0.011621 16.7338 0.0711629 16.4685 0.234753 16.2616C0.398343 16.0546 0.630392 15.9216 0.883488 15.8898L1.00049 15.8824H11.0005ZM17.0005 10.5882C17.2657 10.5882 17.5201 10.6998 17.7076 10.8984C17.8951 11.0969 18.0005 11.3662 18.0005 11.6471C18.0005 11.9279 17.8951 12.1972 17.7076 12.3958C17.5201 12.5943 17.2657 12.7059 17.0005 12.7059H1.00049C0.735272 12.7059 0.480918 12.5943 0.293381 12.3958C0.105845 12.1972 0.000488281 11.9279 0.000488281 11.6471C0.000488281 11.3662 0.105845 11.0969 0.293381 10.8984C0.480918 10.6998 0.735272 10.5882 1.00049 10.5882H17.0005ZM11.0005 5.29412C11.2554 5.29442 11.5005 5.39775 11.6859 5.58302C11.8712 5.76828 11.9827 6.02148 11.9977 6.29089C12.0126 6.5603 11.9298 6.82558 11.7662 7.03253C11.6026 7.23948 11.3706 7.37248 11.1175 7.40435L11.0005 7.41177H1.00049C0.745609 7.41147 0.500456 7.30813 0.31512 7.12287C0.129784 6.93761 0.0182533 6.6844 0.00331616 6.41499C-0.011621 6.14559 0.0711629 5.8803 0.234753 5.67335C0.398343 5.4664 0.630392 5.3334 0.883488 5.30153L1.00049 5.29412H11.0005ZM17.0005 0C17.2554 0.000299337 17.5005 0.103637 17.6859 0.288898C17.8712 0.47416 17.9827 0.727362 17.9977 0.996771C18.0126 1.26618 17.9298 1.53146 17.7662 1.73841C17.6026 1.94536 17.3706 2.07836 17.1175 2.11024L17.0005 2.11765H1.00049C0.745609 2.11735 0.500456 2.01401 0.31512 1.82875C0.129784 1.64349 0.0182533 1.39029 0.00331616 1.12088C-0.011621 0.851467 0.0711629 0.586186 0.234753 0.379236C0.398343 0.172286 0.630392 0.0392862 0.883488 0.00741173L1.00049 0H17.0005Z" fill="#0A0A0A"/>
</svg>
