<svg width="18" height="18" viewBox="0 0 18 18" fill="none" xmlns="http://www.w3.org/2000/svg">
<path d="M17.0005 10.5882C17.2657 10.5882 17.5201 10.6998 17.7076 10.8984C17.8951 11.0969 18.0005 11.3662 18.0005 11.6471C18.0005 11.9279 17.8951 12.1972 17.7076 12.3958C17.5201 12.5943 17.2657 12.7059 17.0005 12.7059H1.00049C0.735272 12.7059 0.480918 12.5943 0.293381 12.3958C0.105845 12.1972 0.000488281 11.9279 0.000488281 11.6471C0.000488281 11.3662 0.105845 11.0969 0.293381 10.8984C0.480918 10.6998 0.735272 10.5882 1.00049 10.5882H17.0005ZM17.0005 0C17.2554 0.000299337 17.5005 0.103637 17.6859 0.288898C17.8712 0.47416 17.9827 0.727362 17.9977 0.996771C18.0126 1.26618 17.9298 1.53146 17.7662 1.73841C17.6026 1.94536 17.3706 2.07836 17.1175 2.11024L17.0005 2.11765H1.00049C0.745609 2.11735 0.500456 2.01401 0.31512 1.82875C0.129784 1.64349 0.0182533 1.39029 0.00331616 1.12088C-0.011621 0.851467 0.0711629 0.586186 0.234753 0.379236C0.398343 0.172286 0.630392 0.0392862 0.883488 0.00741173L1.00049 0H17.0005Z" fill="#0A0A0A"/>
<path d="M14.683 5.58297C14.4977 5.3977 14.2525 5.29437 13.9977 5.29407H3.99766L3.88066 5.30148C3.62756 5.33335 3.39552 5.46635 3.23193 5.6733C3.06834 5.88025 2.98555 6.14553 3.00049 6.41494C3.01543 6.68435 3.12696 6.93756 3.31229 7.12282C3.49763 7.30808 3.74278 7.41142 3.99766 7.41171H13.9977L14.1147 7.4043C14.3678 7.37243 14.5998 7.23943 14.7634 7.03248C14.927 6.82553 15.0098 6.56025 14.9948 6.29084C14.9799 6.02143 14.8684 5.76823 14.683 5.58297Z" fill="#0A0A0A"/>
<path d="M14.6887 16.1712C14.5033 15.986 14.2582 15.8826 14.0033 15.8823H4.00332L3.88632 15.8897C3.63322 15.9216 3.40117 16.0546 3.23758 16.2616C3.07399 16.4685 2.99121 16.7338 3.00614 17.0032C3.02108 17.2726 3.13261 17.5258 3.31795 17.7111C3.50328 17.8963 3.74844 17.9997 4.00332 18H14.0033L14.1203 17.9926C14.3734 17.9607 14.6055 17.8277 14.7691 17.6207C14.9326 17.4138 15.0154 17.1485 15.0005 16.8791C14.9856 16.6097 14.874 16.3565 14.6887 16.1712Z" fill="#0A0A0A"/>
</svg>
