<svg width="19" height="18" viewBox="0 0 19 18" fill="none" xmlns="http://www.w3.org/2000/svg">
<path d="M11.3804 15.8824C11.6353 15.8827 11.8804 15.986 12.0658 16.1713C12.2511 16.3565 12.3626 16.6097 12.3776 16.8791C12.3925 17.1485 12.3097 17.4138 12.1461 17.6208C11.9825 17.8277 11.7505 17.9607 11.4974 17.9926L11.3804 18H1.38039C1.12551 17.9997 0.880354 17.8964 0.695018 17.7111C0.509682 17.5258 0.398151 17.2726 0.383214 17.0032C0.368277 16.7338 0.451061 16.4685 0.614651 16.2616C0.778241 16.0546 1.01029 15.9216 1.26339 15.8898L1.38039 15.8824H11.3804ZM17.3804 10.5882C17.6456 10.5882 17.9 10.6998 18.0875 10.8984C18.275 11.0969 18.3804 11.3662 18.3804 11.6471C18.3804 11.9279 18.275 12.1972 18.0875 12.3958C17.9 12.5943 17.6456 12.7059 17.3804 12.7059H1.38039C1.11517 12.7059 0.860816 12.5943 0.67328 12.3958C0.485743 12.1972 0.380386 11.9279 0.380386 11.6471C0.380386 11.3662 0.485743 11.0969 0.67328 10.8984C0.860816 10.6998 1.11517 10.5882 1.38039 10.5882H17.3804ZM11.3804 5.29412C11.6353 5.29442 11.8804 5.39775 12.0658 5.58302C12.2511 5.76828 12.3626 6.02148 12.3776 6.29089C12.3925 6.5603 12.3097 6.82558 12.1461 7.03253C11.9825 7.23948 11.7505 7.37248 11.4974 7.40435L11.3804 7.41177H1.38039C1.12551 7.41147 0.880354 7.30813 0.695018 7.12287C0.509682 6.93761 0.398151 6.6844 0.383214 6.41499C0.368277 6.14559 0.451061 5.8803 0.614651 5.67335C0.778241 5.4664 1.01029 5.3334 1.26339 5.30153L1.38039 5.29412H11.3804ZM17.3804 0C17.6353 0.000299337 17.8804 0.103637 18.0658 0.288898C18.2511 0.47416 18.3626 0.727362 18.3776 0.996771C18.3925 1.26618 18.3097 1.53146 18.1461 1.73841C17.9825 1.94536 17.7505 2.07836 17.4974 2.11024L17.3804 2.11765H1.38039C1.12551 2.11735 0.880354 2.01401 0.695018 1.82875C0.509682 1.64349 0.398151 1.39029 0.383214 1.12088C0.368277 0.851467 0.451061 0.586186 0.614651 0.379236C0.778241 0.172286 1.01029 0.0392862 1.26339 0.00741173L1.38039 0H17.3804Z" fill="#F5F5F5"/>
</svg>
