<svg width="19" height="18" viewBox="0 0 19 18" fill="none" xmlns="http://www.w3.org/2000/svg">
<path d="M17.3804 10.5882C17.6456 10.5882 17.9 10.6998 18.0875 10.8984C18.275 11.0969 18.3804 11.3662 18.3804 11.6471C18.3804 11.9279 18.275 12.1972 18.0875 12.3958C17.9 12.5943 17.6456 12.7059 17.3804 12.7059H1.38039C1.11517 12.7059 0.860816 12.5943 0.67328 12.3958C0.485743 12.1972 0.380386 11.9279 0.380386 11.6471C0.380386 11.3662 0.485743 11.0969 0.67328 10.8984C0.860816 10.6998 1.11517 10.5882 1.38039 10.5882H17.3804ZM17.3804 0C17.6353 0.000299337 17.8804 0.103637 18.0658 0.288898C18.2511 0.47416 18.3626 0.727362 18.3776 0.996771C18.3925 1.26618 18.3097 1.53146 18.1461 1.73841C17.9825 1.94536 17.7505 2.07836 17.4974 2.11024L17.3804 2.11765H1.38039C1.12551 2.11735 0.880354 2.01401 0.695018 1.82875C0.509682 1.64349 0.398151 1.39029 0.383214 1.12088C0.368277 0.851467 0.451061 0.586186 0.614651 0.379236C0.778241 0.172286 1.01029 0.0392862 1.26339 0.00741173L1.38039 0H17.3804Z" fill="#F5F5F5"/>
<path d="M15.0629 5.58297C14.8776 5.3977 14.6324 5.29437 14.3776 5.29407H4.37756L4.26056 5.30148C4.00746 5.33335 3.77541 5.46635 3.61182 5.6733C3.44823 5.88025 3.36545 6.14553 3.38039 6.41494C3.39532 6.68435 3.50685 6.93756 3.69219 7.12282C3.87753 7.30808 4.12268 7.41142 4.37756 7.41171H14.3776L14.4946 7.4043C14.7477 7.37243 14.9797 7.23943 15.1433 7.03248C15.3069 6.82553 15.3897 6.56025 15.3747 6.29084C15.3598 6.02143 15.2483 5.76823 15.0629 5.58297Z" fill="#F5F5F5"/>
<path d="M15.0686 16.1712C14.8832 15.986 14.6381 15.8826 14.3832 15.8823H4.38321L4.26621 15.8897C4.01312 15.9216 3.78107 16.0546 3.61748 16.2616C3.45389 16.4685 3.3711 16.7338 3.38604 17.0032C3.40098 17.2726 3.51251 17.5258 3.69785 17.7111C3.88318 17.8963 4.12833 17.9997 4.38321 18H14.3832L14.5002 17.9926C14.7533 17.9607 14.9854 17.8277 15.1489 17.6207C15.3125 17.4138 15.3953 17.1485 15.3804 16.8791C15.3654 16.6097 15.2539 16.3565 15.0686 16.1712Z" fill="#F5F5F5"/>
</svg>
