<svg width="13" height="16" viewBox="0 0 13 16" fill="none" xmlns="http://www.w3.org/2000/svg">
<path fill-rule="evenodd" clip-rule="evenodd" d="M2.18555 1.75C2.18555 1.61193 2.29748 1.5 2.43555 1.5H5.43512C5.02111 1.50023 4.68555 1.83593 4.68555 2.25C4.68555 2.66421 5.02134 3 5.43555 3H5.93555C6.34976 3 6.68555 2.66421 6.68555 2.25C6.68555 1.83579 6.34976 1.5 5.93555 1.5H8.02134C8.08764 1.5 8.15123 1.52634 8.19811 1.57322L11.1123 4.48744C11.1592 4.53432 11.1855 4.59791 11.1855 4.66421V13.25C11.1855 13.3881 11.0736 13.5 10.9355 13.5H10.4355C10.0213 13.5 9.68555 13.8358 9.68555 14.25C9.68555 14.6642 10.0213 15 10.4355 15H10.9355C11.902 15 12.6855 14.2165 12.6855 13.25V4.66421C12.6855 4.20008 12.5011 3.75497 12.1729 3.42678L9.25875 0.512563C8.93055 0.184374 8.48546 0 8.02134 0H2.43555C1.46905 0 0.685547 0.783502 0.685547 1.75V13.25C0.685547 13.8987 1.03889 14.464 1.56001 14.7654C1.91855 14.9728 2.37735 14.8503 2.58475 14.4918C2.79216 14.1332 2.66964 13.6744 2.31109 13.467C2.23441 13.4227 2.18555 13.3416 2.18555 13.25V1.75ZM7.43555 3C7.02134 3 6.68555 3.33579 6.68555 3.75C6.68555 4.16421 7.02134 4.5 7.43555 4.5H7.93555C8.34976 4.5 8.68555 4.16421 8.68555 3.75C8.68555 3.33579 8.34976 3 7.93555 3H7.43555ZM4.68555 5.25C4.68555 4.83579 5.02134 4.5 5.43555 4.5H5.93555C6.34976 4.5 6.68555 4.83579 6.68555 5.25C6.68555 5.66421 6.34976 6 5.93555 6H5.43555C5.02134 6 4.68555 5.66421 4.68555 5.25ZM6.68555 6.75C6.68555 6.33579 7.02134 6 7.43555 6H7.93555C8.34976 6 8.68555 6.33579 8.68555 6.75C8.68555 7.16421 8.34976 7.5 7.93555 7.5H7.43555C7.02134 7.5 6.68555 7.16421 6.68555 6.75ZM5.43555 7.5C5.02134 7.5 4.68555 7.83579 4.68555 8.25C4.68555 8.66421 5.02134 9 5.43555 9H5.93555C6.34976 9 6.68555 8.66421 6.68555 8.25C6.68555 7.83579 6.34976 7.5 5.93555 7.5H5.43555ZM6.68555 9.75C6.68555 9.33579 7.02134 9 7.43555 9H7.93555C8.34976 9 8.68555 9.33579 8.68555 9.75C8.68555 10.1642 8.34976 10.5 7.93555 10.5H7.43555C7.02134 10.5 6.68555 10.1642 6.68555 9.75ZM5.93555 10.5C4.96905 10.5 4.18555 11.2835 4.18555 12.25V15.25C4.18555 15.6642 4.52134 16 4.93555 16H7.43555C7.84976 16 8.18555 15.6642 8.18555 15.25V12.25C8.18555 11.2835 7.40205 10.5 6.43555 10.5H5.93555ZM5.68555 12.25C5.68555 12.1119 5.79748 12 5.93555 12H6.43555C6.57362 12 6.68555 12.1119 6.68555 12.25V14.5H5.68555V12.25Z" fill="#0A0A0A"/>
</svg>
