<svg width="17" height="14" viewBox="0 0 17 14" fill="none" xmlns="http://www.w3.org/2000/svg">
<path fill-rule="evenodd" clip-rule="evenodd" d="M1.96142 0.14257C1.62593 -0.100374 1.15702 -0.0253482 0.914082 0.31014C0.671142 0.64563 0.746167 1.11454 1.08166 1.35748L3.77154 3.30533V13.25C3.77154 13.5353 3.93346 13.796 4.18927 13.9224C4.44508 14.0488 4.75046 14.0191 4.97713 13.8458L8.77154 10.9442L12.5659 13.8458C12.7926 14.0191 13.098 14.0488 13.3538 13.9224C13.6096 13.796 13.7715 13.5353 13.7715 13.25V10.5467L15.5816 11.8574C15.9171 12.1004 16.386 12.0254 16.629 11.6899C16.8719 11.3544 16.7969 10.8855 16.4614 10.6425L13.4678 8.47481C13.4632 8.47141 13.4586 8.46807 13.454 8.46478L4.96783 2.31962C4.96327 2.31623 4.95866 2.3129 4.95402 2.30962L1.96142 0.14257ZM5.27154 4.39153V11.7323L8.31595 9.40423C8.58487 9.19863 8.95821 9.19863 9.22713 9.40423L12.2715 11.7323V9.46053L5.27154 4.39153ZM6.63654 2.98661e-05C6.22233 2.98661e-05 5.88654 0.33582 5.88654 0.75003C5.88654 1.16424 6.22233 1.50003 6.63654 1.50003H12.0215C12.1596 1.50003 12.2715 1.61196 12.2715 1.75003V5.37365C12.2715 5.78786 12.6073 6.12365 13.0215 6.12365C13.4357 6.12365 13.7715 5.78786 13.7715 5.37365V1.75003C13.7715 0.78353 12.988 2.98661e-05 12.0215 2.98661e-05H6.63654Z" fill="#0A0A0A"/>
</svg>
