<svg width="13" height="16" viewBox="0 0 13 16" fill="none" xmlns="http://www.w3.org/2000/svg">
<path fill-rule="evenodd" clip-rule="evenodd" d="M0.685548 2.625C0.685548 1.96196 0.948938 1.32607 1.41778 0.857233C1.88663 0.388392 2.52251 0.125 3.18555 0.125H11.9355C12.1344 0.125 12.3252 0.204018 12.4658 0.34467C12.6065 0.485322 12.6855 0.676088 12.6855 0.875V13.375C12.6855 13.5739 12.6065 13.7647 12.4658 13.9053C12.3252 14.046 12.1344 14.125 11.9355 14.125H9.43555C9.23665 14.125 9.04585 14.046 8.90525 13.9053C8.76455 13.7647 8.68555 13.5739 8.68555 13.375C8.68555 13.1761 8.76455 12.9853 8.90525 12.8447C9.04585 12.704 9.23665 12.625 9.43555 12.625H11.1855V10.625H3.18555C2.98863 10.625 2.79611 10.6832 2.63212 10.7922C2.46812 10.9012 2.33997 11.0562 2.26371 11.2378C2.18746 11.4193 2.16651 11.6193 2.20348 11.8128C2.24045 12.0062 2.33371 12.1844 2.47155 12.325C2.61079 12.4672 2.68785 12.6588 2.68579 12.8578C2.68373 13.0568 2.60271 13.2468 2.46055 13.386C2.3184 13.5252 2.12675 13.6023 1.92777 13.6002C1.7288 13.5982 1.53879 13.5172 1.39955 13.375C0.941258 12.9079 0.684838 12.2794 0.685548 11.625V2.625ZM11.1855 1.625V9.125H3.18555C2.82955 9.125 2.49155 9.199 2.18555 9.333V2.625C2.18555 2.35978 2.29091 2.10543 2.47844 1.91789C2.66598 1.73036 2.92033 1.625 3.18555 1.625H11.1855ZM3.68555 12.375V15.625C3.68555 15.6714 3.69848 15.7169 3.72289 15.7564C3.7473 15.7959 3.78222 15.8278 3.82375 15.8486C3.86527 15.8694 3.91176 15.8782 3.958 15.874C4.00424 15.8698 4.04841 15.8529 4.08555 15.825L5.53555 14.738C5.57883 14.7055 5.63146 14.688 5.68555 14.688C5.73964 14.688 5.79228 14.7055 5.83555 14.738L7.28555 15.825C7.32269 15.8529 7.36686 15.8698 7.4131 15.874C7.45934 15.8782 7.50583 15.8694 7.54735 15.8486C7.58888 15.8278 7.62381 15.7959 7.64821 15.7564C7.67262 15.7169 7.68555 15.6714 7.68555 15.625V12.375C7.68555 12.3087 7.65921 12.2451 7.61233 12.1982C7.56544 12.1513 7.50186 12.125 7.43555 12.125H3.93555C3.86925 12.125 3.80566 12.1513 3.75877 12.1982C3.71189 12.2451 3.68555 12.3087 3.68555 12.375Z" fill="#0A0A0A"/>
</svg>
