<svg width="11" height="14" viewBox="0 0 11 14" fill="none" xmlns="http://www.w3.org/2000/svg">
<path fill-rule="evenodd" clip-rule="evenodd" d="M2.52148 1.5C2.38341 1.5 2.27148 1.61193 2.27148 1.75V11.6608L5.2947 9.1711C5.57164 8.94298 5.97132 8.94298 6.24826 9.1711L9.27148 11.6608V1.75C9.27148 1.61193 9.15958 1.5 9.02148 1.5H2.52148ZM0.771484 1.75C0.771484 0.7835 1.55498 0 2.52148 0H9.02148C9.98798 0 10.7715 0.7835 10.7715 1.75V13.25C10.7715 13.5402 10.6041 13.8044 10.3416 13.9283C10.0791 14.0521 9.76878 14.0134 9.54468 13.8289L5.77148 10.7216L1.99826 13.8289C1.77423 14.0134 1.46386 14.0521 1.20139 13.9283C0.938924 13.8044 0.771484 13.5402 0.771484 13.25V1.75Z" fill="#0A0A0A"/>
</svg>
