<svg width="14" height="14" viewBox="0 0 14 14" fill="none" xmlns="http://www.w3.org/2000/svg">
<path fill-rule="evenodd" clip-rule="evenodd" d="M2.54126 7.5C1.57476 7.5 0.79126 8.2835 0.79126 9.25L0.791261 11.75C0.791261 12.7165 1.57476 13.5 2.54126 13.5H5.04126C6.00776 13.5 6.79126 12.7165 6.79126 11.75V9.25C6.79126 8.2835 6.00776 7.5 5.04126 7.5H2.54126ZM2.29126 9.25C2.29126 9.11193 2.40319 9 2.54126 9H5.04126C5.17933 9 5.29126 9.11193 5.29126 9.25L5.29126 11.75C5.29126 11.8881 5.17933 12 5.04126 12H2.54126C2.40319 12 2.29126 11.8881 2.29126 11.75L2.29126 9.25Z" fill="#0A0A0A"/>
<path fill-rule="evenodd" clip-rule="evenodd" d="M2.54126 0.500001C1.57476 0.500001 0.79126 1.2835 0.79126 2.25L0.79126 4.75C0.79126 5.7165 1.57476 6.5 2.54126 6.5H5.04126C6.00776 6.5 6.79126 5.7165 6.79126 4.75L6.79126 2.25C6.79126 1.2835 6.00776 0.500001 5.04126 0.500001L2.54126 0.500001ZM2.29126 2.25C2.29126 2.11193 2.40319 2 2.54126 2L5.04126 2C5.17933 2 5.29126 2.11193 5.29126 2.25V4.75C5.29126 4.88807 5.17933 5 5.04126 5L2.54126 5C2.40319 5 2.29126 4.88807 2.29126 4.75L2.29126 2.25Z" fill="#0A0A0A"/>
<path fill-rule="evenodd" clip-rule="evenodd" d="M7.79126 2.25C7.79126 1.2835 8.57476 0.5 9.54126 0.5L12.0413 0.5C13.0078 0.5 13.7913 1.2835 13.7913 2.25V4.75C13.7913 5.7165 13.0078 6.5 12.0413 6.5L9.54126 6.5C8.57476 6.5 7.79126 5.7165 7.79126 4.75L7.79126 2.25ZM9.54126 2C9.40319 2 9.29126 2.11193 9.29126 2.25V4.75C9.29126 4.88807 9.40319 5 9.54126 5H12.0413C12.1793 5 12.2913 4.88807 12.2913 4.75V2.25C12.2913 2.11193 12.1793 2 12.0413 2L9.54126 2Z" fill="#0A0A0A"/>
<path fill-rule="evenodd" clip-rule="evenodd" d="M9.54126 7.5C8.57476 7.5 7.79126 8.2835 7.79126 9.25V11.75C7.79126 12.7165 8.57476 13.5 9.54126 13.5H12.0413C13.0078 13.5 13.7913 12.7165 13.7913 11.75V9.25C13.7913 8.2835 13.0078 7.5 12.0413 7.5L9.54126 7.5ZM9.29126 9.25C9.29126 9.11193 9.40319 9 9.54126 9H12.0413C12.1793 9 12.2913 9.11193 12.2913 9.25V11.75C12.2913 11.8881 12.1793 12 12.0413 12H9.54126C9.40319 12 9.29126 11.8881 9.29126 11.75L9.29126 9.25Z" fill="#0A0A0A"/>
</svg>
