<svg width="19" height="18" viewBox="0 0 19 18" fill="none" xmlns="http://www.w3.org/2000/svg">
<path d="M18.0669 15.8023C18.3084 16.0437 18.444 16.3712 18.444 16.7126C18.444 17.054 18.3084 17.3815 18.0669 17.6229C17.8255 17.8644 17.498 18 17.1566 18C16.8152 18 16.4877 17.8644 16.2463 17.6229L9.44667 10.8212L2.64493 17.6208C2.40349 17.8622 2.07604 17.9979 1.7346 17.9979C1.39316 17.9979 1.06571 17.8622 0.824274 17.6208C0.582841 17.3794 0.447205 17.0519 0.447205 16.7105C0.447205 16.369 0.582841 16.0416 0.824274 15.8001L7.62602 9.00054L0.826416 2.19879C0.584982 1.95736 0.449347 1.6299 0.449347 1.28847C0.449347 0.947028 0.584982 0.619574 0.826416 0.37814C1.06785 0.136707 1.3953 0.0010708 1.73674 0.00107079C2.07818 0.00107079 2.40563 0.136707 2.64707 0.37814L9.44667 7.17988L16.2484 0.377069C16.4898 0.135636 16.8173 -5.68837e-09 17.1587 0C17.5002 5.68837e-09 17.8276 0.135636 18.0691 0.377069C18.3105 0.618503 18.4461 0.945957 18.4461 1.2874C18.4461 1.62883 18.3105 1.95629 18.0691 2.19772L11.2673 9.00054L18.0669 15.8023Z" fill="#F5F5F5"/>
</svg>
