<svg width="13" height="10" viewBox="0 0 13 10" fill="none" xmlns="http://www.w3.org/2000/svg">
<path fill-rule="evenodd" clip-rule="evenodd" d="M11.8765 0.845011C12.0169 0.985631 12.0958 1.17626 12.0958 1.37501C12.0958 1.57376 12.0169 1.76438 11.8765 1.90501L4.62653 9.15501C4.4859 9.29541 4.29528 9.37431 4.09653 9.37431C3.89778 9.37431 3.70715 9.29541 3.56653 9.15501L0.316531 5.90501C0.184051 5.76283 0.111931 5.57479 0.115351 5.38048C0.118781 5.18618 0.197491 5.0008 0.334911 4.86338C0.472321 4.72597 0.657711 4.64726 0.852011 4.64383C1.04631 4.6404 1.23435 4.71253 1.37653 4.84501L4.09653 7.56501L10.8165 0.845011C10.9571 0.704561 11.1477 0.625671 11.3465 0.625671C11.5452 0.625671 11.7359 0.704561 11.8765 0.845011Z" fill="#0A0A0A"/>
</svg>
