<svg width="13" height="14" viewBox="0 0 13 14" fill="none" xmlns="http://www.w3.org/2000/svg">
<path fill-rule="evenodd" clip-rule="evenodd" d="M4.52148 0C4.10727 0 3.77148 0.33579 3.77148 0.75V3.75C3.77148 4.16421 4.10727 4.5 4.52148 4.5H9.02148C9.43568 4.5 9.77148 4.16421 9.77148 3.75V0.75C9.77148 0.33579 9.43568 0 9.02148 0H4.52148ZM5.27148 3V1.5H8.27148V3H5.27148ZM2.39702 2.533C2.75557 2.32559 2.87809 1.86679 2.67068 1.50825C2.46328 1.1497 2.00448 1.02718 1.64594 1.23459C1.12482 1.53604 0.771484 2.10132 0.771484 2.75001V12.25C0.771484 13.2165 1.55498 14 2.52148 14H11.0215C11.988 14 12.7715 13.2165 12.7715 12.25V2.75001C12.7715 2.10132 12.4182 1.53604 11.897 1.23459C11.5385 1.02718 11.0797 1.1497 10.8723 1.50825C10.6649 1.86679 10.7874 2.32559 11.146 2.533C11.2226 2.57735 11.2715 2.65842 11.2715 2.75001V12.25C11.2715 12.3881 11.1596 12.5 11.0215 12.5H2.52148C2.38341 12.5 2.27148 12.3881 2.27148 12.25V2.75001C2.27148 2.65842 2.32034 2.57735 2.39702 2.533Z" fill="#0A0A0A"/>
</svg>
