<svg width="19" height="18" viewBox="0 0 19 18" fill="none" xmlns="http://www.w3.org/2000/svg">
<path d="M2.94458 18H11.9446C12.7118 18 13.4476 17.6952 13.9901 17.1527C14.5327 16.6102 14.8374 15.8744 14.8374 15.1071V6.10714C14.8374 5.33991 14.5327 4.6041 13.9901 4.06158C13.4476 3.51907 12.7118 3.21429 11.9446 3.21429H2.94458C2.17735 3.21429 1.44154 3.51907 0.899026 4.06158C0.35651 4.6041 0.0517273 5.33991 0.0517273 6.10714V15.1071C0.0517273 15.8744 0.35651 16.6102 0.899026 17.1527C1.44154 17.6952 2.17735 18 2.94458 18Z" fill="#F5F5F5"/>
<path d="M12.9089 1.92857H3.43155C3.63156 1.36496 4.00106 0.877047 4.48936 0.531758C4.97765 0.186469 5.56082 0.000722012 6.15887 0H15.1589C15.9261 0 16.6619 0.304782 17.2044 0.847298C17.7469 1.38981 18.0517 2.12562 18.0517 2.89286V11.8929C18.051 12.4909 17.8653 13.0741 17.52 13.5624C17.1747 14.0507 16.6868 14.4202 16.1232 14.6202V5.14286C16.1232 4.29038 15.7845 3.47281 15.1817 2.87001C14.5789 2.26722 13.7614 1.92857 12.9089 1.92857Z" fill="#F5F5F5"/>
</svg>
