<svg width="10" height="10" viewBox="0 0 10 10" fill="none" xmlns="http://www.w3.org/2000/svg">
<path fill-rule="evenodd" clip-rule="evenodd" d="M0.315043 0.72C0.455663 0.57955 0.646293 0.50066 0.845043 0.50066C1.04379 0.50066 1.23441 0.57955 1.37504 0.72L4.59504 3.94L7.81504 0.72C7.88374 0.64631 7.96654 0.58721 8.05854 0.54622C8.15054 0.50523 8.24984 0.48319 8.35054 0.48141C8.45124 0.47963 8.55124 0.49816 8.64464 0.53588C8.73804 0.5736 8.82284 0.62974 8.89404 0.70096C8.96534 0.77218 9.02144 0.85702 9.05914 0.9504C9.09684 1.04379 9.11544 1.14382 9.11364 1.24452C9.11184 1.34523 9.08984 1.44454 9.04884 1.53654C9.00784 1.62854 8.94874 1.71134 8.87504 1.78L5.65504 5L8.87504 8.22C8.94874 8.2887 9.00784 8.3715 9.04884 8.4635C9.08984 8.5555 9.11184 8.6548 9.11364 8.7555C9.11544 8.8562 9.09684 8.9562 9.05914 9.0496C9.02144 9.143 8.96534 9.2278 8.89404 9.299C8.82284 9.3703 8.73804 9.4264 8.64464 9.4641C8.55124 9.5018 8.45124 9.5204 8.35054 9.5186C8.24984 9.5168 8.15054 9.4948 8.05854 9.4538C7.96654 9.4128 7.88374 9.3537 7.81504 9.28L4.59504 6.06L1.37504 9.28C1.23286 9.4125 1.04481 9.4846 0.850513 9.4812C0.656213 9.4777 0.470833 9.399 0.333413 9.2616C0.196003 9.1242 0.117293 8.9388 0.113863 8.7445C0.110433 8.5502 0.182563 8.3622 0.315043 8.22L3.53504 5L0.315043 1.78C0.174593 1.63938 0.0957031 1.44875 0.0957031 1.25C0.0957031 1.05125 0.174593 0.86063 0.315043 0.72Z" fill="#0A0A0A"/>
</svg>
