<svg width="11" height="14" viewBox="0 0 11 14" fill="none" xmlns="http://www.w3.org/2000/svg">
<path fill-rule="evenodd" clip-rule="evenodd" d="M4.68842 10.0302C4.98131 10.3231 5.45619 10.3231 5.74908 10.0302L9.49905 6.28027C9.79195 5.98738 9.79195 5.5125 9.49905 5.21961C9.20615 4.92672 8.73135 4.92672 8.43845 5.21961L5.96875 7.68928V0.999939C5.96875 0.585729 5.63296 0.249939 5.21875 0.249939C4.80454 0.249939 4.46875 0.585729 4.46875 0.999939V7.68928L1.99908 5.21961C1.70619 4.92672 1.23131 4.92672 0.93842 5.21961C0.64553 5.5125 0.64553 5.98738 0.93842 6.28027L4.68842 10.0302ZM0.96875 12.25C0.55454 12.25 0.21875 12.5858 0.21875 13C0.21875 13.4142 0.55454 13.75 0.96875 13.75H9.46875C9.88295 13.75 10.2188 13.4142 10.2188 13C10.2188 12.5858 9.88295 12.25 9.46875 12.25H0.96875Z" fill="#0A0A0A"/>
</svg>
