<svg width="19" height="18" viewBox="0 0 19 18" fill="none" xmlns="http://www.w3.org/2000/svg">
<path d="M8.14721 13.5H9.94721V8.1H8.14721V13.5ZM9.04721 6.3C9.30221 6.3 9.51611 6.2136 9.68891 6.0408C9.86171 5.868 9.94781 5.6544 9.94721 5.4C9.94661 5.1456 9.86021 4.932 9.68801 4.7592C9.51581 4.5864 9.30221 4.5 9.04721 4.5C8.79221 4.5 8.57861 4.5864 8.40641 4.7592C8.23421 4.932 8.14781 5.1456 8.14721 5.4C8.14661 5.6544 8.23301 5.8683 8.40641 6.0417C8.57981 6.2151 8.79341 6.3012 9.04721 6.3ZM9.04721 18C7.80221 18 6.63221 17.7636 5.53721 17.2908C4.44221 16.818 3.48971 16.1769 2.67971 15.3675C1.86971 14.5581 1.22861 13.6056 0.756412 12.51C0.284212 11.4144 0.0478118 10.2444 0.0472118 9C0.0466118 7.7556 0.283012 6.5856 0.756412 5.49C1.22981 4.3944 1.87091 3.4419 2.67971 2.6325C3.48851 1.8231 4.44101 1.182 5.53721 0.7092C6.63341 0.2364 7.80341 0 9.04721 0C10.291 0 11.461 0.2364 12.5572 0.7092C13.6534 1.182 14.6059 1.8231 15.4147 2.6325C16.2235 3.4419 16.8649 4.3944 17.3389 5.49C17.8129 6.5856 18.049 7.7556 18.0472 9C18.0454 10.2444 17.809 11.4144 17.338 12.51C16.867 13.6056 16.2259 14.5581 15.4147 15.3675C14.6035 16.1769 13.651 16.8183 12.5572 17.2917C11.4634 17.7651 10.2934 18.0012 9.04721 18Z" fill="#F5F5F5"/>
</svg>
