<svg width="17" height="14" viewBox="0 0 17 14" fill="none" xmlns="http://www.w3.org/2000/svg">
<path fill-rule="evenodd" clip-rule="evenodd" d="M2.43555 1.5C2.29748 1.5 2.18555 1.61193 2.18555 1.75V12.25C2.18555 12.3881 2.29748 12.5 2.43555 12.5H14.9355C15.0736 12.5 15.1855 12.3881 15.1855 12.25V3.75C15.1855 3.61193 15.0736 3.5 14.9355 3.5H8.18555C7.63472 3.5 7.11604 3.24066 6.78555 2.8L5.88555 1.6C5.83833 1.53705 5.76424 1.5 5.68555 1.5H2.43555ZM0.685547 1.75C0.685547 0.783502 1.46905 0 2.43555 0H5.68555C6.23637 0 6.75505 0.25934 7.08555 0.7L7.98555 1.9C8.03276 1.96295 8.10686 2 8.18555 2H14.9355C15.902 2 16.6855 2.7835 16.6855 3.75V12.25C16.6855 13.2165 15.902 14 14.9355 14H2.43555C1.46905 14 0.685547 13.2165 0.685547 12.25V1.75Z" fill="#0A0A0A"/>
</svg>
