<svg width="15" height="12" viewBox="0 0 15 12" fill="none" xmlns="http://www.w3.org/2000/svg">
<path d="M3.01888 0.633331C2.46193 0.633331 1.92778 0.854581 1.53396 1.24841C1.14013 1.64223 0.91888 2.17638 0.91888 2.73333C0.91888 3.29029 1.14013 3.82443 1.53396 4.21826C1.92778 4.61208 2.46193 4.83333 3.01888 4.83333C3.57583 4.83333 4.10998 4.61208 4.5038 4.21826C4.89763 3.82443 5.11888 3.29029 5.11888 2.73333C5.11888 2.17638 4.89763 1.64223 4.5038 1.24841C4.10998 0.854581 3.57583 0.633331 3.01888 0.633331ZM7.45221 0.633331V11.3667H11.6522C10.8477 11.3667 10.0762 11.0471 9.50732 10.4782C8.93846 9.90936 8.61888 9.13782 8.61888 8.33333C8.61888 7.52884 8.93846 6.7573 9.50732 6.18844C10.0762 5.61958 10.8477 5.3 11.6522 5.3C11.0334 5.3 10.4399 5.05417 10.0023 4.61658C9.56471 4.179 9.31888 3.5855 9.31888 2.96666C9.31888 2.34783 9.56471 1.75433 10.0023 1.31675C10.4399 0.879164 11.0334 0.633331 11.6522 0.633331H7.45221ZM11.6522 0.633331V5.3C12.2711 5.3 12.8645 5.05417 13.3021 4.61658C13.7397 4.179 13.9855 3.5855 13.9855 2.96666C13.9855 2.34783 13.7397 1.75433 13.3021 1.31675C12.8645 0.879164 12.2711 0.633331 11.6522 0.633331ZM11.6522 5.3V11.3667C12.0506 11.3667 12.445 11.2882 12.813 11.1358C13.181 10.9833 13.5154 10.7599 13.7971 10.4782C14.0788 10.1966 14.3022 9.86216 14.4546 9.49414C14.6071 9.12612 14.6855 8.73168 14.6855 8.33333C14.6855 7.52884 14.366 6.7573 13.7971 6.18844C13.2282 5.61958 12.4567 5.3 11.6522 5.3ZM7.16055 1.0965L0.685547 11.3661H5.81888L7.16055 9.24275V1.0965Z" fill="#0A0A0A"/>
</svg>
