<svg width="17" height="16" viewBox="0 0 17 16" fill="none" xmlns="http://www.w3.org/2000/svg">
<path fill-rule="evenodd" clip-rule="evenodd" d="M8.11377 1.5C4.52392 1.5 1.61377 4.41015 1.61377 8C1.61377 11.5899 4.52392 14.5 8.11377 14.5C11.7037 14.5 14.6138 11.5899 14.6138 8C14.6138 4.41015 11.7037 1.5 8.11377 1.5ZM0.11377 8C0.11377 3.58172 3.69549 0 8.11377 0C12.5321 0 16.1138 3.58172 16.1138 8C16.1138 12.4183 12.5321 16 8.11377 16C3.69549 16 0.11377 12.4183 0.11377 8ZM6.61377 7.75C6.61377 7.33579 6.94956 7 7.36377 7H8.36377C8.77798 7 9.11377 7.33579 9.11377 7.75V10.5H9.36377C9.77798 10.5 10.1138 10.8358 10.1138 11.25C10.1138 11.6642 9.77798 12 9.36377 12H7.36377C6.94956 12 6.61377 11.6642 6.61377 11.25C6.61377 10.8358 6.94956 10.5 7.36377 10.5H7.61377V8.5H7.36377C6.94956 8.5 6.61377 8.16421 6.61377 7.75ZM8.11377 6C8.66606 6 9.11377 5.55228 9.11377 5C9.11377 4.44772 8.66606 4 8.11377 4C7.56149 4 7.11377 4.44772 7.11377 5C7.11377 5.55228 7.56149 6 8.11377 6Z" fill="#0A0A0A"/>
</svg>
