<svg width="17" height="16" viewBox="0 0 17 16" fill="none" xmlns="http://www.w3.org/2000/svg">
<path d="M9.30054 5.00001L9.30054 0.75C9.30054 0.335786 8.96475 0 8.55054 0C8.13632 0 7.80054 0.335786 7.80054 0.75L7.80054 5.00001H5.65409C5.43136 5.00001 5.31982 5.26929 5.47731 5.42678L8.37376 8.32323C8.47139 8.42086 8.62968 8.42086 8.72731 8.32323L11.6238 5.42678C11.7812 5.26929 11.6697 5.00001 11.447 5.00001H9.30054Z" fill="#0A0A0A"/>
<path fill-rule="evenodd" clip-rule="evenodd" d="M2.05054 2.75C2.05054 2.61193 2.16247 2.5 2.30054 2.5H5.30054C5.71475 2.5 6.05054 2.16421 6.05054 1.75C6.05054 1.33579 5.71475 1 5.30054 1H2.30054C1.33404 1 0.550537 1.7835 0.550537 2.75V10.25C0.550537 11.2165 1.33404 12 2.30054 12H6.02755C5.92846 13.041 5.50736 13.8724 4.73547 14.7568C4.54208 14.9784 4.49606 15.2926 4.61776 15.5604C4.73946 15.8281 5.00643 16 5.30053 16H11.8005C12.0946 16 12.3616 15.8281 12.4833 15.5604C12.605 15.2926 12.559 14.9784 12.3656 14.7568C11.5937 13.8724 11.1726 13.041 11.0735 12H14.8005C15.767 12 16.5505 11.2165 16.5505 10.25V2.75C16.5505 1.7835 15.767 1 14.8005 1H11.8005C11.3863 1 11.0505 1.33579 11.0505 1.75C11.0505 2.16421 11.3863 2.5 11.8005 2.5H14.8005C14.9386 2.5 15.0505 2.61193 15.0505 2.75V10.25C15.0505 10.3881 14.9386 10.5 14.8005 10.5H2.30054C2.16247 10.5 2.05054 10.3881 2.05054 10.25V2.75ZM9.56836 12H7.5327C7.46444 12.9377 7.20152 13.7473 6.76785 14.5H10.3332C9.89955 13.7473 9.63663 12.9377 9.56836 12Z" fill="#0A0A0A"/>
</svg>
