<svg width="10" height="18" viewBox="0 0 10 18" fill="none" xmlns="http://www.w3.org/2000/svg">
<path d="M0.402832 18L0.52937 16.8295L2.11109 16.5132C2.40635 16.4499 2.6067 16.355 2.71215 16.2285C2.8176 16.1019 2.89141 15.8699 2.93359 15.5325L4.61021 2.27768C4.6313 2.00351 4.58912 1.81371 4.48368 1.70826C4.39932 1.60281 4.25169 1.51845 4.04079 1.45518L2.45907 1.17047L2.58561 0H9.67173L9.54519 1.17047L7.96347 1.45518C7.66821 1.51845 7.45731 1.6239 7.33078 1.77153C7.22533 1.89807 7.15151 2.11951 7.10934 2.43585L5.46434 15.7223C5.44325 15.9754 5.47489 16.1652 5.55925 16.2917C5.64361 16.3972 5.80178 16.471 6.03376 16.5132L7.61549 16.8295L7.48895 18H0.402832Z" fill="#0A0A0A"/>
</svg>
