<svg width="11" height="18" viewBox="0 0 11 18" fill="none" xmlns="http://www.w3.org/2000/svg">
<path d="M0.782837 18L0.909375 16.8295L2.4911 16.5132C2.78635 16.4499 2.9867 16.355 3.09215 16.2285C3.1976 16.1019 3.27141 15.8699 3.31359 15.5325L4.99022 2.27768C5.01131 2.00351 4.96913 1.81371 4.86368 1.70826C4.77932 1.60281 4.63169 1.51845 4.4208 1.45518L2.83908 1.17047L2.96561 0H10.0517L9.92519 1.17047L8.34347 1.45518C8.04822 1.51845 7.83732 1.6239 7.71078 1.77153C7.60533 1.89807 7.53152 2.11951 7.48934 2.43585L5.84435 15.7223C5.82326 15.9754 5.85489 16.1652 5.93925 16.2917C6.02361 16.3972 6.18178 16.471 6.41377 16.5132L7.99549 16.8295L7.86895 18H0.782837Z" fill="white"/>
</svg>
