<svg width="13" height="16" viewBox="0 0 13 16" fill="none" xmlns="http://www.w3.org/2000/svg">
<path fill-rule="evenodd" clip-rule="evenodd" d="M2.77148 4.5V6.5H2.52148C2.05735 6.5 1.61223 6.68437 1.28404 7.01256C0.955854 7.34075 0.771484 7.78587 0.771484 8.25V13.75C0.771484 14.716 1.55548 15.5 2.52148 15.5H11.0215C11.4856 15.5 11.9307 15.3156 12.2589 14.9874C12.5871 14.6592 12.7715 14.2141 12.7715 13.75V8.25C12.7715 7.78587 12.5871 7.34075 12.2589 7.01256C11.9307 6.68437 11.4856 6.5 11.0215 6.5H10.7715V4.5C10.7715 3.43913 10.3501 2.42172 9.59988 1.67157C8.84978 0.921427 7.83235 0.5 6.77148 0.5C5.71061 0.5 4.6932 0.921427 3.94305 1.67157C3.19291 2.42172 2.77148 3.43913 2.77148 4.5ZM9.27148 6.5V4.5C9.27148 3.83696 9.00808 3.20107 8.53925 2.73223C8.07041 2.26339 7.43452 2 6.77148 2C6.10844 2 5.47255 2.26339 5.00371 2.73223C4.53487 3.20107 4.27148 3.83696 4.27148 4.5V6.5H9.27148ZM10.7715 8H11.0215C11.0878 8 11.1514 8.02634 11.1983 8.07322C11.2452 8.12011 11.2715 8.1837 11.2715 8.25V13.75C11.2715 13.8163 11.2452 13.8799 11.1983 13.9268C11.1514 13.9737 11.0878 14 11.0215 14H2.52148C2.45518 14 2.39159 13.9737 2.3447 13.9268C2.29782 13.8799 2.27148 13.8163 2.27148 13.75V8.25C2.27148 8.1837 2.29782 8.12011 2.3447 8.07322C2.39159 8.02634 2.45518 8 2.52148 8H10.7715Z" fill="#0A0A0A"/>
</svg>
