<svg width="15" height="14" viewBox="0 0 15 14" fill="none" xmlns="http://www.w3.org/2000/svg">
<path fill-rule="evenodd" clip-rule="evenodd" d="M11.1012 5.99035C11.1012 6.58129 10.9848 7.16646 10.7586 7.71242C10.5325 8.25839 10.201 8.75446 9.78323 9.17235C9.36533 9.59015 8.86926 9.92165 8.32329 10.1479C7.77733 10.374 7.19217 10.4903 6.60122 10.4903C6.01027 10.4903 5.42511 10.374 4.87914 10.1479C4.33318 9.92165 3.8371 9.59015 3.41924 9.17235C3.00137 8.75446 2.66991 8.25839 2.44376 7.71242C2.21761 7.16646 2.10122 6.58129 2.10122 5.99035C2.10122 4.79687 2.57532 3.65228 3.41924 2.80837C4.26315 1.96445 5.40774 1.49035 6.60122 1.49035C7.79469 1.49035 8.93928 1.96445 9.78323 2.80837C10.6271 3.65228 11.1012 4.79687 11.1012 5.99035ZM10.2812 10.7303C9.0756 11.6663 7.55859 12.1076 6.03902 11.9644C4.51945 11.8214 3.11156 11.1045 2.10197 9.95975C1.09237 8.81506 0.55697 7.32864 0.60475 5.8031C0.65254 4.27755 1.27992 2.82755 2.35917 1.7483C3.43843 0.66905 4.88842 0.0416701 6.41397 -0.00611988C7.93952 -0.0539029 9.42593 0.4815 10.5706 1.4911C11.7153 2.50069 12.4322 3.90858 12.5753 5.42815C12.7185 6.94771 12.2772 8.46472 11.3412 9.67035L14.3812 12.7104C14.4549 12.779 14.514 12.8618 14.555 12.9538C14.596 13.0458 14.618 13.1451 14.6198 13.2458C14.6216 13.3465 14.603 13.4465 14.5653 13.5399C14.5276 13.6333 14.4714 13.7181 14.4002 13.7893C14.329 13.8606 14.2442 13.9167 14.1508 13.9544C14.0574 13.9921 13.9574 14.0107 13.8567 14.009C13.756 14.0072 13.6566 13.9852 13.5647 13.9441C13.4727 13.9031 13.3899 13.844 13.3212 13.7703L10.2812 10.7303Z" fill="#0A0A0A"/>
</svg>
