<svg width="14" height="14" viewBox="0 0 14 14" fill="none" xmlns="http://www.w3.org/2000/svg">
<path fill-rule="evenodd" clip-rule="evenodd" d="M8.34002 0.405543C8.54581 0.199752 8.85208 0.131593 9.12572 0.230688C11.8171 1.20532 13.7421 3.78398 13.7421 6.81415C13.7421 10.6801 10.6081 13.8142 6.74207 13.8142C3.7119 13.8142 1.13324 11.8892 0.158605 9.19781C0.0595109 8.92416 0.127669 8.6179 0.333461 8.41211C0.539252 8.20632 0.845518 8.13816 1.11916 8.23725C1.70275 8.44859 2.33308 8.56415 2.99207 8.56415C6.02964 8.56415 8.49207 6.10172 8.49207 3.06415C8.49207 2.40517 8.3765 1.77483 8.16517 1.19124C8.06607 0.9176 8.13423 0.611334 8.34002 0.405543ZM9.95605 2.35022C9.97988 2.58508 9.99207 2.82327 9.99207 3.06415C9.99207 6.93015 6.85807 10.0642 2.99207 10.0642C2.75118 10.0642 2.513 10.052 2.27814 10.0281C3.27729 11.4133 4.90504 12.3142 6.74207 12.3142C9.77964 12.3142 12.2421 9.85172 12.2421 6.81415C12.2421 4.97713 11.3412 3.34936 9.95605 2.35022Z" fill="#0A0A0A"/>
</svg>
