<svg width="18" height="16" viewBox="0 0 18 16" fill="none" xmlns="http://www.w3.org/2000/svg">
<path fill-rule="evenodd" clip-rule="evenodd" d="M11.0661 1.18482C10.1302 -0.394939 7.86977 -0.394938 6.93395 1.18482L0.347079 12.3041C-0.61648 13.9306 0.540311 16 2.41313 16H15.5869C17.4597 16 18.6165 13.9306 17.6529 12.304L11.0661 1.18482ZM8.11838 11.1005L7.93767 3.08052H10.0569L9.88163 11.1005H8.11838ZM9.85425 14.2064C9.61695 14.4431 9.33221 14.5614 9 14.5614C8.78096 14.5614 8.582 14.5078 8.40312 14.4006C8.22059 14.2896 8.07457 14.1417 7.96505 13.9569C7.85188 13.772 7.7953 13.5668 7.7953 13.3412C7.7953 13.0084 7.91577 12.7237 8.15671 12.4871C8.394 12.2504 8.67509 12.1321 9 12.1321C9.33221 12.1321 9.61695 12.2504 9.85425 12.4871C10.0879 12.7237 10.2047 13.0084 10.2047 13.3412C10.2047 13.6814 10.0879 13.9698 9.85425 14.2064Z" fill="white"/>
</svg>
