<svg width="15" height="16" viewBox="0 0 15 16" fill="none" xmlns="http://www.w3.org/2000/svg">
<path fill-rule="evenodd" clip-rule="evenodd" d="M10.6982 1.46966C11.3816 0.786237 12.4896 0.786239 13.173 1.46966L14.2588 2.55545C14.9422 3.23886 14.9422 4.3469 14.2588 5.03032L5.64913 13.64C5.43883 13.8503 5.17841 14.0035 4.89245 14.0852L1.64161 15.014C1.37971 15.0889 1.09784 15.0158 0.905239 14.8232C0.712639 14.6306 0.639596 14.3488 0.714419 14.0869L1.64324 10.836C1.72494 10.5501 1.87817 10.2896 2.08847 10.0793L10.6982 1.46966ZM12.1124 2.53032C12.0147 2.43269 11.8564 2.43269 11.7588 2.53032L10.4962 3.79288L11.9356 5.23222L13.1982 3.96966C13.2958 3.87203 13.2958 3.71374 13.1982 3.61611L12.1124 2.53032ZM10.8749 6.29288L9.43557 4.85354L3.14913 11.14C3.11909 11.17 3.0972 11.2072 3.08552 11.2481L2.52758 13.2009L4.48037 12.6429C4.52122 12.6313 4.55842 12.6094 4.58847 12.5793L10.8749 6.29288Z" fill="#0A0A0A"/>
</svg>
