<svg width="16" height="16" viewBox="0 0 16 16" fill="none" xmlns="http://www.w3.org/2000/svg">
<path fill-rule="evenodd" clip-rule="evenodd" d="M5.00625 1.12334C5.8672 0.262393 7.32238 0.521925 7.83262 1.62743L8.44528 2.95487C8.59761 3.28492 8.80714 3.58541 9.06418 3.84245C9.4674 4.24567 9.9746 4.52909 10.5293 4.66117L12.9835 5.24549C14.3154 5.56259 14.7837 7.21727 13.8156 8.18534L11.6114 10.3896L15.331 14.1093C15.6239 14.4022 15.6239 14.877 15.331 15.1699C15.0381 15.4628 14.5633 15.4628 14.2704 15.1699L10.5507 11.4503L8.34642 13.6545C7.37834 14.6226 5.72368 14.1543 5.40657 12.8224L4.82224 10.3682C4.69016 9.81353 4.40674 9.30633 4.00352 8.90311C3.74648 8.64607 3.44599 8.43654 3.11593 8.28421L1.7885 7.67155C0.682997 7.16131 0.423465 5.70613 1.28442 4.84518L5.00625 1.12334ZM6.47068 2.25602C6.39779 2.09809 6.1899 2.06101 6.06691 2.18401L2.34508 5.90584C2.22208 6.02883 2.25916 6.23672 2.41709 6.30961L3.74452 6.92227C4.23524 7.14876 4.68202 7.46029 5.06419 7.84245C5.66369 8.44196 6.08507 9.19605 6.28145 10.0208L6.86578 12.475C6.91108 12.6653 7.14746 12.7322 7.28576 12.5939L12.755 7.12468C12.8933 6.98638 12.8264 6.75 12.6361 6.7047L10.1819 6.12038C9.35713 5.924 8.60302 5.50261 8.00352 4.90311C7.62135 4.52094 7.30983 4.07417 7.08334 3.58346L6.47068 2.25602Z" fill="#0A0A0A"/>
</svg>
