<svg width="19" height="18" viewBox="0 0 19 18" fill="none" xmlns="http://www.w3.org/2000/svg">
<path d="M11.9945 0.218692L12.0912 0.304056L17.7479 5.96077C17.9213 6.13507 18.0265 6.36572 18.0444 6.61091C18.0624 6.8561 17.992 7.09962 17.8458 7.29734C17.6997 7.49506 17.4876 7.6339 17.248 7.6887C17.0083 7.7435 16.7569 7.71064 16.5394 7.59608L13.277 10.8574L11.8125 14.7626C11.7739 14.8657 11.719 14.9618 11.65 15.0475L11.578 15.1298L10.0352 16.6725C9.85799 16.8495 9.62229 16.9556 9.37235 16.9712C9.1224 16.9867 8.87537 16.9105 8.67761 16.7569L8.5799 16.6715L5.70732 13.7999L1.80624 17.7C1.62116 17.8845 1.3728 17.9915 1.11161 17.9995C0.850429 18.0075 0.596001 17.9158 0.400005 17.7429C0.20401 17.5701 0.081145 17.3292 0.0563648 17.069C0.0315847 16.8089 0.106748 16.5491 0.266588 16.3424L0.351953 16.2457L4.252 12.3446L1.38045 9.47205C1.20336 9.29495 1.09699 9.05932 1.08127 8.80937C1.06555 8.55942 1.14158 8.31232 1.29508 8.11444L1.38045 8.01776L2.92319 6.47502C3.00079 6.39714 3.09038 6.3322 3.18854 6.28269L3.28933 6.23949L7.19349 4.77389L10.4548 1.51356C10.3436 1.30564 10.3072 1.06581 10.3518 0.834249C10.3963 0.602691 10.5191 0.393468 10.6995 0.241624C10.8799 0.0897801 11.107 0.00453821 11.3427 0.00017612C11.5785 -0.00418597 11.8086 0.0736252 11.9945 0.218692Z" fill="#F5F5F5"/>
</svg>
