<svg width="12" height="12" viewBox="0 0 12 12" fill="none" xmlns="http://www.w3.org/2000/svg">
<path fill-rule="evenodd" clip-rule="evenodd" d="M5.96875 0.25C6.16766 0.25 6.35843 0.32902 6.49908 0.46967C6.63973 0.61032 6.71875 0.80109 6.71875 1V5.25H10.9688C11.1677 5.25 11.3584 5.32902 11.4991 5.46967C11.6398 5.61032 11.7188 5.80109 11.7188 6C11.7188 6.19891 11.6398 6.38968 11.4991 6.53033C11.3584 6.67098 11.1677 6.75 10.9688 6.75H6.71875V11C6.71875 11.1989 6.63973 11.3897 6.49908 11.5303C6.35843 11.671 6.16766 11.75 5.96875 11.75C5.76984 11.75 5.57907 11.671 5.43842 11.5303C5.29777 11.3897 5.21875 11.1989 5.21875 11V6.75H0.96875C0.76984 6.75 0.57907 6.67098 0.43842 6.53033C0.29777 6.38968 0.21875 6.19891 0.21875 6C0.21875 5.80109 0.29777 5.61032 0.43842 5.46967C0.57907 5.32902 0.76984 5.25 0.96875 5.25H5.21875V1C5.21875 0.80109 5.29777 0.61032 5.43842 0.46967C5.57907 0.32902 5.76984 0.25 5.96875 0.25Z" fill="#0A0A0A"/>
</svg>
