<svg width="18" height="12" viewBox="0 0 18 12" fill="none" xmlns="http://www.w3.org/2000/svg">
<path fill-rule="evenodd" clip-rule="evenodd" d="M18 6.00001C18 6.00001 13.9707 11.4 9 11.4C4.0293 11.4 0 6.00001 0 6.00001C0 6.00001 4.0293 0.600006 9 0.600006C13.9707 0.600006 18 6.00001 18 6.00001ZM10.9092 7.90919C10.4028 8.41554 9.71608 8.70001 9 8.70001C8.28392 8.70001 7.59716 8.41554 7.09081 7.90919C6.58446 7.40285 6.3 6.71609 6.3 6.00001C6.3 5.28392 6.58446 4.59717 7.09081 4.09082C7.59716 3.58447 8.28392 3.30001 9 3.30001C9.71608 3.30001 10.4028 3.58447 10.9092 4.09082C11.4155 4.59717 11.7 5.28392 11.7 6.00001C11.7 6.71609 11.4155 7.40285 10.9092 7.90919Z" fill="white"/>
</svg>
