<svg width="19" height="18" viewBox="0 0 19 18" fill="none" xmlns="http://www.w3.org/2000/svg">
<path fill-rule="evenodd" clip-rule="evenodd" d="M4.91539 0.240352C4.98826 0.316348 5.04608 0.406628 5.08553 0.506021C5.12498 0.605414 5.14529 0.711967 5.14529 0.819578C5.14529 0.927188 5.12498 1.03374 5.08553 1.13313C5.04608 1.23253 4.98826 1.32281 4.91539 1.3988L3.12022 3.27392H11.4043C13.2722 3.27392 15.0636 4.04967 16.3844 5.43051C17.7052 6.81135 18.4472 8.68416 18.4472 10.637C18.4472 12.5898 17.7052 14.4626 16.3844 15.8434C15.0636 17.2243 13.2722 18 11.4043 18H5.14389C4.93635 18 4.7373 17.9138 4.59055 17.7604C4.44379 17.607 4.36134 17.3989 4.36134 17.1819C4.36134 16.9649 4.44379 16.7568 4.59055 16.6034C4.7373 16.45 4.93635 16.3638 5.14389 16.3638H11.4043C12.8571 16.3638 14.2504 15.7604 15.2777 14.6864C16.305 13.6124 16.8821 12.1558 16.8821 10.637C16.8821 9.11812 16.305 7.66148 15.2777 6.5875C14.2504 5.51351 12.8571 4.91015 11.4043 4.91015H3.12022L4.91539 6.78527C4.98815 6.86134 5.04586 6.95164 5.08524 7.05103C5.12461 7.15041 5.14488 7.25693 5.14488 7.3645C5.14488 7.47207 5.12461 7.57859 5.08524 7.67798C5.04586 7.77736 4.98815 7.86766 4.91539 7.94373C4.84263 8.01979 4.75625 8.08013 4.66119 8.1213C4.56613 8.16246 4.46424 8.18365 4.36134 8.18365C4.25845 8.18365 4.15656 8.16246 4.0615 8.1213C3.96643 8.08013 3.88006 8.01979 3.8073 7.94373L0.677107 4.67127C0.604231 4.59527 0.546412 4.50499 0.506962 4.4056C0.467511 4.3062 0.447205 4.19965 0.447205 4.09204C0.447205 3.98443 0.467511 3.87788 0.506962 3.77848C0.546412 3.67909 0.604231 3.58881 0.677107 3.51281L3.8073 0.240352C3.87999 0.164164 3.96635 0.103717 4.06142 0.0624734C4.15649 0.0212299 4.25841 0 4.36134 0C4.46428 0 4.5662 0.0212299 4.66127 0.0624734C4.75634 0.103717 4.8427 0.164164 4.91539 0.240352Z" fill="#F5F5F5"/>
</svg>
