<svg width="18" height="18" viewBox="0 0 18 18" fill="none" xmlns="http://www.w3.org/2000/svg">
<path fill-rule="evenodd" clip-rule="evenodd" d="M10.6854 0.1368C10.3349 -4.02331e-08 9.88961 0 9.00005 0C8.1105 0 7.66619 -4.02331e-08 7.31473 0.1368C6.84812 0.31879 6.47669 0.669389 6.28213 1.1115C6.19308 1.3122 6.15897 1.5471 6.14476 1.8882C6.13844 2.13534 6.06588 2.37687 5.93393 2.58995C5.80198 2.80302 5.615 2.9806 5.39068 3.1059C5.16213 3.22659 4.90521 3.29053 4.64372 3.29179C4.38224 3.29305 4.12465 3.23159 3.89482 3.1131C3.57462 2.9529 3.34252 2.8647 3.11327 2.8359C2.6117 2.77333 2.10442 2.90142 1.70173 3.1923C1.40047 3.4101 1.17785 3.7737 0.733542 4.5C0.288291 5.2263 0.0666129 5.589 0.0164037 5.9445C-0.0499102 6.4179 0.0865071 6.8967 0.395341 7.2756C0.535547 7.4484 0.733542 7.5933 1.03953 7.7751C1.49142 8.0424 1.7813 8.4978 1.7813 9C1.7813 9.5022 1.49142 9.9576 1.04048 10.224C0.733542 10.4067 0.535547 10.5516 0.394393 10.7244C0.24195 10.9115 0.130056 11.1255 0.065177 11.354C0.00029831 11.5825 -0.0162788 11.8209 0.0164037 12.0555C0.0666129 12.4101 0.288291 12.7737 0.733542 13.5C1.17879 14.2263 1.40047 14.589 1.70173 14.8077C2.1034 15.0984 2.61117 15.2262 3.11327 15.1641C3.34252 15.1353 3.57462 15.0471 3.89482 14.8869C4.12477 14.7683 4.38253 14.7067 4.6442 14.708C4.90586 14.7092 5.16296 14.7732 5.39162 14.8941C5.85203 15.1461 6.12487 15.6096 6.14476 16.1118C6.15897 16.4538 6.19308 16.6878 6.28213 16.8885C6.47538 17.3295 6.84674 17.6805 7.31473 17.8632C7.66525 18 8.1105 18 9.00005 18C9.88961 18 10.3349 18 10.6854 17.8632C11.152 17.6812 11.5234 17.3306 11.718 16.8885C11.807 16.6878 11.8411 16.4538 11.8553 16.1118C11.8743 15.6096 12.1481 15.1452 12.6094 14.8941C12.838 14.7734 13.0949 14.7095 13.3564 14.7082C13.6179 14.707 13.8755 14.7684 14.1053 14.8869C14.4255 15.0471 14.6576 15.1353 14.8868 15.1641C15.3889 15.2271 15.8967 15.0984 16.2984 14.8077C16.5996 14.5899 16.8223 14.2263 17.2666 13.5C17.7118 12.7737 17.9335 12.411 17.9837 12.0555C18.0163 11.8208 17.9995 11.5824 17.9345 11.3539C17.8694 11.1254 17.7574 10.9115 17.6048 10.7244C17.4646 10.5516 17.2666 10.4067 16.9606 10.2249C16.5087 9.9576 16.2188 9.5022 16.2188 9C16.2188 8.4978 16.5087 8.0424 16.9596 7.776C17.2666 7.5933 17.4646 7.4484 17.6057 7.2756C17.7582 7.08845 17.87 6.87446 17.9349 6.64599C17.9998 6.41752 18.0164 6.17909 17.9837 5.9445C17.9335 5.5899 17.7118 5.2263 17.2666 4.5C16.8213 3.7737 16.5996 3.411 16.2984 3.1923C15.8957 2.90142 15.3884 2.77333 14.8868 2.8359C14.6576 2.8647 14.4255 2.9529 14.1053 3.1131C13.8753 3.23175 13.6176 3.2933 13.3559 3.29204C13.0942 3.29078 12.8371 3.22675 12.6085 3.1059C12.3843 2.98049 12.1975 2.80286 12.0658 2.5898C11.934 2.37673 11.8616 2.13526 11.8553 1.8882C11.8411 1.5462 11.807 1.3122 11.718 1.1115C11.6217 0.892562 11.4809 0.693794 11.3037 0.526552C11.1266 0.35931 10.9164 0.22687 10.6854 0.1368ZM9.00005 11.7C10.5821 11.7 11.8639 10.4913 11.8639 9C11.8639 7.5087 10.5812 6.3 9.00005 6.3C7.41799 6.3 6.13624 7.5087 6.13624 9C6.13624 10.4913 7.41894 11.7 9.00005 11.7Z" fill="#F5F5F5"/>
</svg>
