<svg width="16" height="16" viewBox="0 0 16 16" fill="none" xmlns="http://www.w3.org/2000/svg">
<path fill-rule="evenodd" clip-rule="evenodd" d="M7.62533 1.52471C7.81338 1.50836 8.00389 1.5 8.19653 1.5C8.38917 1.5 8.57968 1.50836 8.76773 1.52471C8.80322 1.52779 8.87585 1.56149 8.90448 1.67093L9.19355 2.77622C9.34016 3.33676 9.7427 3.74277 10.1908 3.96473C10.3643 4.05067 10.5316 4.14753 10.6917 4.25443C11.1083 4.53261 11.6617 4.67836 12.2208 4.52497L13.3237 4.22235C13.4326 4.19246 13.4982 4.23831 13.5188 4.26758C13.7373 4.57848 13.9291 4.90924 14.0911 5.25654C14.1059 5.2884 14.1132 5.36792 14.0327 5.44746L13.2179 6.25258C12.8064 6.65921 12.6556 7.21008 12.6873 7.70918C12.6934 7.80524 12.6965 7.9022 12.6965 8C12.6965 8.0978 12.6934 8.19476 12.6873 8.29082C12.6556 8.78992 12.8064 9.34079 13.2179 9.74742L14.0327 10.5525C14.1132 10.6321 14.1059 10.7116 14.0911 10.7435C13.9291 11.0908 13.7373 11.4215 13.5188 11.7324C13.4982 11.7617 13.4326 11.8075 13.3237 11.7777L12.2208 11.475C11.6617 11.3216 11.1083 11.4674 10.6917 11.7456C10.5316 11.8525 10.3643 11.9493 10.1908 12.0353C9.7427 12.2572 9.34016 12.6632 9.19355 13.2238L8.90448 14.3291C8.87585 14.4385 8.80322 14.4722 8.76773 14.4753C8.57968 14.4916 8.38917 14.5 8.19653 14.5C8.00389 14.5 7.81338 14.4916 7.62533 14.4753C7.58983 14.4722 7.5172 14.4385 7.48858 14.3291L7.19949 13.2237C7.05289 12.6632 6.65036 12.2572 6.20225 12.0353C6.02874 11.9493 5.86149 11.8525 5.7014 11.7456C5.28478 11.4674 4.73134 11.3216 4.1723 11.475L3.06931 11.7777C2.9604 11.8075 2.89479 11.7617 2.87421 11.7324C2.65574 11.4215 2.46391 11.0908 2.30196 10.7435C2.2871 10.7116 2.27981 10.6321 2.3603 10.5525L3.17518 9.74736C3.5867 9.34074 3.73753 8.78987 3.70577 8.29078C3.69967 8.19474 3.69656 8.09778 3.69656 8C3.69656 7.90222 3.69967 7.80526 3.70577 7.70922C3.73753 7.21013 3.5867 6.65926 3.17518 6.25264L2.3603 5.44746C2.27981 5.36793 2.2871 5.28841 2.30196 5.25655C2.46391 4.90924 2.65574 4.57848 2.87422 4.26758C2.89479 4.23831 2.9604 4.19247 3.06931 4.22235L4.1723 4.52498C4.73134 4.67837 5.28478 4.53262 5.7014 4.25444C5.86149 4.14755 6.02874 4.05069 6.20225 3.96475C6.65035 3.74279 7.05289 3.33678 7.19949 2.77625L7.48858 1.67093C7.5172 1.56149 7.58983 1.52779 7.62533 1.52471ZM8.19653 0C7.96047 0 7.72662 0.010245 7.49542 0.0303435C6.75264 0.0949143 6.20644 0.645042 6.03739 1.29138L5.7483 2.39671C5.73084 2.46349 5.6694 2.55476 5.53646 2.62061C5.30485 2.73533 5.08179 2.86452 4.86845 3.00697C4.74547 3.08908 4.63586 3.09674 4.5692 3.07845L3.46621 2.77581C2.82297 2.59932 2.0748 2.79629 1.64694 3.40515C1.37821 3.78757 1.14203 4.19473 0.9425 4.62262C0.627532 5.29808 0.831356 6.04545 1.30601 6.51446L2.12089 7.31963C2.17003 7.36819 2.21817 7.46677 2.2088 7.61399C2.20068 7.74171 2.19656 7.87043 2.19656 8C2.19656 8.12957 2.20068 8.25829 2.2088 8.38601C2.21817 8.53323 2.17003 8.63181 2.12089 8.68037L1.30601 9.48555C0.831355 9.95455 0.627532 10.7019 0.9425 11.3774C1.14203 11.8053 1.37821 12.2124 1.64694 12.5948C2.0748 13.2037 2.82297 13.4007 3.46621 13.2242L4.5692 12.9216C4.63586 12.9033 4.74548 12.9109 4.86845 12.993C5.08179 13.1355 5.30485 13.2647 5.53646 13.3794C5.6694 13.4452 5.73084 13.5365 5.7483 13.6033L6.03739 14.7086C6.20644 15.355 6.75264 15.9051 7.49542 15.9697C7.72662 15.9898 7.96047 16 8.19653 16C8.43259 16 8.66644 15.9898 8.89763 15.9697C9.64041 15.9051 10.1866 15.355 10.3556 14.7086L10.6447 13.6033C10.6622 13.5365 10.7236 13.4453 10.8566 13.3794C11.0882 13.2647 11.3113 13.1355 11.5246 12.993C11.6476 12.9109 11.7572 12.9033 11.8239 12.9216L12.9268 13.2242C13.5701 13.4007 14.3182 13.2037 14.7461 12.5949C15.0148 12.2124 15.251 11.8053 15.4505 11.3774C15.7655 10.7019 15.5617 9.95456 15.087 9.48555L14.2722 8.68042C14.223 8.63187 14.1749 8.53328 14.1843 8.38606C14.1924 8.25832 14.1965 8.12959 14.1965 8C14.1965 7.87041 14.1924 7.74168 14.1843 7.61394C14.1749 7.46672 14.223 7.36813 14.2722 7.31958L15.087 6.51445C15.5617 6.04544 15.7655 5.29807 15.4505 4.62261C15.251 4.19472 15.0148 3.78756 14.7461 3.40515C14.3182 2.79628 13.5701 2.59932 12.9268 2.77581L11.8239 3.07843C11.7572 3.09672 11.6476 3.08907 11.5246 3.00696C11.3113 2.8645 11.0882 2.7353 10.8566 2.62057C10.7236 2.55473 10.6622 2.46346 10.6447 2.39667L10.3556 1.29138C10.1866 0.64504 9.64041 0.0949126 8.89763 0.0303426C8.66644 0.0102447 8.43259 0 8.19653 0ZM9.69653 8C9.69653 8.82843 9.02496 9.5 8.19653 9.5C7.3681 9.5 6.69653 8.82843 6.69653 8C6.69653 7.17157 7.3681 6.5 8.19653 6.5C9.02496 6.5 9.69653 7.17157 9.69653 8ZM11.1965 8C11.1965 9.65685 9.85338 11 8.19653 11C6.53968 11 5.19653 9.65685 5.19653 8C5.19653 6.34315 6.53968 5 8.19653 5C9.85338 5 11.1965 6.34315 11.1965 8Z" fill="#0A0A0A"/>
</svg>
