<svg width="14" height="16" viewBox="0 0 14 16" fill="none" xmlns="http://www.w3.org/2000/svg">
<path fill-rule="evenodd" clip-rule="evenodd" d="M6.36761 0.517232C6.91058 0.202305 7.58064 0.202305 8.12362 0.517232L13.1262 3.41872C13.9567 3.90039 13.9567 5.09963 13.1262 5.5813L8.12362 8.48279C7.58064 8.79771 6.91058 8.79771 6.36761 8.48279L1.36504 5.5813C0.53457 5.09963 0.53457 3.90039 1.36504 3.41872L6.36761 0.517232ZM7.37104 1.81478C7.29347 1.76979 7.19775 1.76979 7.12018 1.81478L2.49048 4.50001L7.12018 7.18524C7.19775 7.23023 7.29347 7.23023 7.37104 7.18524L12.0007 4.50001L7.37104 1.81478ZM0.846838 7.91372C1.05466 7.55541 1.51359 7.43342 1.8719 7.64124L7.12018 10.6852C7.19775 10.7302 7.29347 10.7302 7.37104 10.6852L12.6193 7.64124C12.9776 7.43342 13.4366 7.55541 13.6444 7.91372C13.8522 8.27203 13.7302 8.73096 13.3719 8.93878L8.12362 11.9828C7.58064 12.2977 6.91058 12.2977 6.36761 11.9828L1.11932 8.93878C0.761016 8.73096 0.63902 8.27203 0.846838 7.91372ZM0.846838 11.4137C1.05466 11.0554 1.51359 10.9334 1.8719 11.1412L7.12018 14.1852C7.19775 14.2302 7.29347 14.2302 7.37104 14.1852L12.6193 11.1412C12.9776 10.9334 13.4366 11.0554 13.6444 11.4137C13.8522 11.772 13.7302 12.231 13.3719 12.4388L8.12362 15.4828C7.58064 15.7977 6.91058 15.7977 6.36761 15.4828L1.11932 12.4388C0.761016 12.231 0.63902 11.772 0.846838 11.4137Z" fill="#0A0A0A"/>
</svg>
