<svg width="17" height="16" viewBox="0 0 17 16" fill="none" xmlns="http://www.w3.org/2000/svg">
<path fill-rule="evenodd" clip-rule="evenodd" d="M8.11377 10.5C9.49448 10.5 10.6138 9.38071 10.6138 8C10.6138 6.61929 9.49448 5.5 8.11377 5.5C6.73306 5.5 5.61377 6.61929 5.61377 8C5.61377 9.38071 6.73306 10.5 8.11377 10.5ZM8.11377 12C10.3229 12 12.1138 10.2091 12.1138 8C12.1138 5.79086 10.3229 4 8.11377 4C5.90463 4 4.11377 5.79086 4.11377 8C4.11377 10.2091 5.90463 12 8.11377 12Z" fill="#0A0A0A"/>
<path fill-rule="evenodd" clip-rule="evenodd" d="M8.11377 0C8.52798 0 8.86377 0.335786 8.86377 0.75V2.25C8.86377 2.66421 8.52798 3 8.11377 3C7.69956 3 7.36377 2.66421 7.36377 2.25V0.75C7.36377 0.335786 7.69956 0 8.11377 0ZM8.11377 13C8.52798 13 8.86377 13.3358 8.86377 13.75V15.25C8.86377 15.6642 8.52798 16 8.11377 16C7.69956 16 7.36377 15.6642 7.36377 15.25V13.75C7.36377 13.3358 7.69956 13 8.11377 13Z" fill="#0A0A0A"/>
<path fill-rule="evenodd" clip-rule="evenodd" d="M2.45706 2.34329C2.74995 2.0504 3.22483 2.0504 3.51772 2.34329L4.57838 3.40395C4.87127 3.69684 4.87127 4.17172 4.57838 4.46461C4.28549 4.7575 3.81061 4.7575 3.51772 4.46461L2.45706 3.40395C2.16417 3.11106 2.16417 2.63618 2.45706 2.34329ZM11.6494 11.5357C11.9423 11.2428 12.4172 11.2428 12.7101 11.5357L13.7708 12.5963C14.0637 12.8892 14.0637 13.3641 13.7708 13.657C13.4779 13.9499 13.003 13.9499 12.7101 13.657L11.6494 12.5963C11.3566 12.3034 11.3566 11.8286 11.6494 11.5357Z" fill="#0A0A0A"/>
<path fill-rule="evenodd" clip-rule="evenodd" d="M16.1138 8C16.1138 8.41421 15.778 8.75 15.3638 8.75H13.8638C13.4496 8.75 13.1138 8.41421 13.1138 8C13.1138 7.58579 13.4496 7.25 13.8638 7.25H15.3638C15.778 7.25 16.1138 7.58579 16.1138 8ZM3.11377 8C3.11377 8.41421 2.77798 8.75 2.36377 8.75H0.863769C0.449556 8.75 0.11377 8.41421 0.11377 8C0.11377 7.58579 0.449556 7.25 0.86377 7.25H2.36377C2.77798 7.25 3.11377 7.58579 3.11377 8Z" fill="#0A0A0A"/>
<path fill-rule="evenodd" clip-rule="evenodd" d="M13.7705 2.34329C14.0634 2.63618 14.0634 3.11106 13.7705 3.40395L12.7098 4.46461C12.4169 4.7575 11.9421 4.7575 11.6492 4.46461C11.3563 4.17172 11.3563 3.69684 11.6492 3.40395L12.7098 2.34329C13.0027 2.0504 13.4776 2.0504 13.7705 2.34329ZM4.57809 11.5357C4.87098 11.8286 4.87098 12.3034 4.57809 12.5963L3.51743 13.657C3.22454 13.9499 2.74966 13.9499 2.45677 13.657C2.16388 13.3641 2.16388 12.8892 2.45677 12.5963L3.51743 11.5357C3.81032 11.2428 4.2852 11.2428 4.57809 11.5357Z" fill="#0A0A0A"/>
</svg>
