<svg width="13" height="14" viewBox="0 0 13 14" fill="none" xmlns="http://www.w3.org/2000/svg">
<path d="M4.01126 13.78C4.15343 13.9125 4.34148 13.9846 4.53578 13.9812C4.73008 13.9777 4.91547 13.899 5.05288 13.7616C5.19029 13.6242 5.26901 13.4388 5.27243 13.2445C5.27586 13.0502 5.20374 12.8622 5.07126 12.72L3.35126 11H12.0413C12.2402 11 12.4309 10.921 12.5716 10.7803C12.7122 10.6397 12.7913 10.4489 12.7913 10.25C12.7913 10.0511 12.7122 9.86032 12.5716 9.71967C12.4309 9.57902 12.2402 9.5 12.0413 9.5H3.35126L5.07126 7.78C5.20374 7.63782 5.27586 7.44978 5.27243 7.25548C5.26901 7.06118 5.19029 6.87579 5.05288 6.73838C4.91547 6.60096 4.73008 6.52225 4.53578 6.51882C4.34148 6.5154 4.15343 6.58752 4.01126 6.72L1.01126 9.72C0.870809 9.86062 0.79192 10.0512 0.79192 10.25C0.79192 10.4487 0.870809 10.6394 1.01126 10.78L4.01126 13.78ZM9.57126 7.28C9.5026 7.35369 9.4198 7.41279 9.3278 7.45378C9.2358 7.49477 9.13649 7.51681 9.03578 7.51859C8.93508 7.52037 8.83505 7.50184 8.74166 7.46412C8.64827 7.4264 8.56344 7.37026 8.49222 7.29904C8.421 7.22782 8.36486 7.14298 8.32714 7.0496C8.28942 6.95621 8.27089 6.85618 8.27267 6.75548C8.27444 6.65477 8.29649 6.55546 8.33748 6.46346C8.37847 6.37146 8.43757 6.28866 8.51126 6.22L10.2313 4.5H1.54126C1.34235 4.5 1.15158 4.42098 1.01093 4.28033C0.870277 4.13968 0.79126 3.94891 0.79126 3.75C0.79126 3.55109 0.870277 3.36032 1.01093 3.21967C1.15158 3.07902 1.34235 3 1.54126 3H10.2313L8.51126 1.28C8.37878 1.13782 8.30666 0.949778 8.31008 0.755476C8.31351 0.561175 8.39223 0.37579 8.52964 0.238377C8.66705 0.100964 8.85244 0.0222523 9.04674 0.0188241C9.24104 0.0153959 9.42908 0.0875191 9.57126 0.219999L12.5713 3.22C12.7117 3.36062 12.7906 3.55125 12.7906 3.75C12.7906 3.94875 12.7117 4.13937 12.5713 4.28L9.57126 7.28Z" fill="#0A0A0A"/>
</svg>
