<svg width="13" height="16" viewBox="0 0 13 16" fill="none" xmlns="http://www.w3.org/2000/svg">
<path fill-rule="evenodd" clip-rule="evenodd" d="M5.27148 2.25C5.27148 2.11193 5.38341 2 5.52148 2H8.02148C8.15955 2 8.27148 2.11193 8.27148 2.25V3.5H5.27148V2.25ZM9.77148 2.25V3.5H12.0215C12.4357 3.5 12.7715 3.83579 12.7715 4.25C12.7715 4.66421 12.4357 5 12.0215 5H1.52148C1.10727 5 0.771484 4.66421 0.771484 4.25C0.771484 3.83579 1.10727 3.5 1.52148 3.5H3.77148V2.25C3.77148 1.2835 4.55498 0.5 5.52148 0.5H8.02148C8.98798 0.5 9.77148 1.2835 9.77148 2.25ZM3.26775 7.17537C3.22654 6.76321 2.85901 6.4625 2.44685 6.50372C2.03469 6.54493 1.73398 6.91247 1.7752 7.32462L2.43515 13.9241C2.52461 14.8187 3.2774 15.5 4.17646 15.5H9.36648C10.2656 15.5 11.0184 14.8187 11.1078 13.9241L11.7678 7.32462C11.809 6.91247 11.5083 6.54493 11.0961 6.50372C10.684 6.4625 10.3164 6.76321 10.2752 7.17537L9.61528 13.7749C9.60248 13.9027 9.49488 14 9.36648 14H4.17646C4.04803 14 3.94048 13.9027 3.9277 13.7749L3.26775 7.17537Z" fill="#0A0A0A"/>
</svg>
