<svg width="17" height="16" viewBox="0 0 17 16" fill="none" xmlns="http://www.w3.org/2000/svg">
<path fill-rule="evenodd" clip-rule="evenodd" d="M8.60509 2.19288C8.51091 2.01668 8.2583 2.01668 8.16412 2.19289L2.08248 13.5714C1.99347 13.738 2.11414 13.9393 2.30296 13.9393H14.4662C14.6551 13.9393 14.7757 13.738 14.6867 13.5714L8.60509 2.19288ZM6.84123 1.48582C7.50049 0.252367 9.26873 0.252366 9.92799 1.48582L16.0096 12.8644C16.6327 14.0301 15.788 15.4393 14.4662 15.4393H2.30296C0.981159 15.4393 0.136512 14.0301 0.759579 12.8644L6.84123 1.48582ZM9.38461 11.4393C9.38461 11.9916 8.9369 12.4393 8.38461 12.4393C7.83233 12.4393 7.38461 11.9916 7.38461 11.4393C7.38461 10.887 7.83233 10.4393 8.38461 10.4393C8.9369 10.4393 9.38461 10.887 9.38461 11.4393ZM9.13461 6.1893C9.13461 5.77509 8.79882 5.4393 8.38461 5.4393C7.9704 5.4393 7.63461 5.77509 7.63461 6.1893V8.6893C7.63461 9.10351 7.9704 9.4393 8.38461 9.4393C8.79882 9.4393 9.13461 9.10351 9.13461 8.6893V6.1893Z" fill="#0A0A0A"/>
</svg>
