<svg width="103" height="187" viewBox="0 0 103 187" fill="none" xmlns="http://www.w3.org/2000/svg">
<path d="M16.5006 156.84C26.6626 138.016 36.9102 121.969 46.1649 107.477C67.8446 73.5286 84.0765 48.111 81 15.5C88.6439 47.6681 70.9279 75.7785 47.6246 112.755C38.7987 126.759 29.1714 142.035 19.8168 159.285C23.7424 160.458 33.5789 161.677 49.8151 152.876C68.982 142.486 81.1691 121.235 81.1691 121.235C66.9539 128.037 59.4951 129.266 48.8001 124.948C48.8001 124.948 65.7881 125.173 78.6058 112.347C101.966 88.9718 102.5 51.5929 102.5 51.5929C88.0684 78.0665 78.8706 86.5101 61.33 95.0086C61.33 95.0086 78.4513 78.8225 86.6499 66.7426C94.8482 54.6634 101.178 39.4202 101.178 39.4202C99.7134 23.7572 93.0845 14.394 76 0.977005C76 0.977005 74.0047 17.5234 62.4217 43.8428C57.2995 55.483 44.9965 72.7322 35.9104 85.1092C36.0576 85.4945 36.6553 94.0156 35.3074 99.6516C34.0741 104.809 29.8537 112.389 29.8537 112.389C29.8537 112.389 32.388 96.802 29.8497 92.7717C-0.738634 127.453 11.9824 150.648 16.5006 156.84Z" fill="#F4F4F4"/>
<path fill-rule="evenodd" clip-rule="evenodd" d="M15.1612 159L11.0229 165.854C8.48192 170.158 0.204937 173.075 0.204937 173.075C0.204937 173.075 3.95025 178.992 0 185.535L2.55919 187C6.50944 180.458 13.6407 180.768 13.6407 180.768C13.6407 180.768 12.2344 172.307 14.8616 168.052L19 161.198L15.1612 159ZM5.79418 178.791C6.85423 179.398 8.21888 179.053 8.84221 178.021C9.46555 176.988 9.11152 175.659 8.05146 175.052C6.99141 174.445 5.62676 174.79 5.00343 175.822C4.38009 176.855 4.73413 178.184 5.79418 178.791Z" fill="#F4F4F4"/>
</svg>
